# xmcd
#
# Track frame offsets:
#	150
#	15293
#	29811
#	43772
#	56729
#	68148
#	81563
#	95620
#	105231
#	117307
#	126512
#	136927
#	150442
#	163328
#	174198
#	191693
#	208483
#	223019
#	233261
#	243400
#
# Disc length: 3398 seconds
#
# Revision: 3
# Processed by: cddbd v1.5.2PL0 Copyright (c) Steve Scherf et al.
# Submitted via: audiograbber 1.83.01
#
DISCID=1c0d4414
DTITLE=Glen Campbell - Classic Campbell CD2
DYEAR=2006
DGENRE=Country
TTITLE0=Learnin' The Blues (1979)
TTITLE1=Rhinestone Cowboy (1975)
TTITLE2=Wichita Lineman (1968)
TTITLE3=Break My Mind (1968)
TTITLE4=Dream Baby (How Long Must I Dream) (1971)
TTITLE5=Southern Nights (1977)
TTITLE6=Until It's Time For You To Go (1969)
TTITLE7=Universal Soldier (1965)
TTITLE8=Galveston (1969)
TTITLE9=It's Over (1968)
TTITLE10=Help Me Make It Through The Night (1971)
TTITLE11=Mary In The Morning (1967)
TTITLE12=Crying (1967)
TTITLE13=Running Scared (1972)
TTITLE14=Last Thing On My Mind (1972)
TTITLE15=Yesterday, When I Was Young (1974)
TTITLE16=My Girl (1975)
TTITLE17=Catch The Wind (1967)
TTITLE18=Without Her (1967)
TTITLE19=You're My World (1967)
EXTD=Track dates provided.
EXTT0=
EXTT1=
EXTT2=
EXTT3=
EXTT4=
EXTT5=
EXTT6=
EXTT7=
EXTT8=
EXTT9=
EXTT10=
EXTT11=
EXTT12=
EXTT13=
EXTT14=
EXTT15=
EXTT16=
EXTT17=
EXTT18=
EXTT19=
PLAYORDER=
